<mxfile host="Electron" agent="Mozilla/5.0 (Windows NT 10.0; Win64; x64) AppleWebKit/537.36 (KHTML, like Gecko) draw.io/25.0.2 Chrome/128.0.6613.186 Electron/32.2.5 Safari/537.36" border="50" scale="3" compressed="false" locked="false" version="25.0.2">
  <diagram name="Blank" id="YmL12bMKpDGza6XwsDPr">
    <mxGraphModel dx="1157" dy="107" grid="0" gridSize="10" guides="1" tooltips="1" connect="1" arrows="1" fold="1" page="0" pageScale="1" pageWidth="827" pageHeight="1169" background="none" math="1" shadow="0">
      <root>
        <mxCell id="X5NqExCQtvZxIxQ7pmgY-0" />
        <mxCell id="1" parent="X5NqExCQtvZxIxQ7pmgY-0" />
        <mxCell id="GmpaHRqOEA-6ExnxAMrS-1" value="Robot Bus" style="rounded=0;whiteSpace=wrap;html=1;fillColor=#dae8fc;strokeColor=#6c8ebf;" vertex="1" parent="1">
          <mxGeometry x="-8" y="447" width="583" height="22" as="geometry" />
        </mxCell>
        <mxCell id="GmpaHRqOEA-6ExnxAMrS-2" value="实物机器人" style="rounded=0;whiteSpace=wrap;html=1;" vertex="1" parent="1">
          <mxGeometry x="-8" y="496" width="99" height="41" as="geometry" />
        </mxCell>
        <mxCell id="GmpaHRqOEA-6ExnxAMrS-4" value="仿真机器人" style="rounded=0;whiteSpace=wrap;html=1;" vertex="1" parent="1">
          <mxGeometry x="113" y="496" width="99" height="41" as="geometry" />
        </mxCell>
        <mxCell id="GmpaHRqOEA-6ExnxAMrS-5" value="虚构机器人" style="rounded=0;whiteSpace=wrap;html=1;" vertex="1" parent="1">
          <mxGeometry x="234" y="496" width="99" height="41" as="geometry" />
        </mxCell>
        <mxCell id="GmpaHRqOEA-6ExnxAMrS-6" value="工装" style="rounded=0;whiteSpace=wrap;html=1;" vertex="1" parent="1">
          <mxGeometry x="355" y="496" width="99" height="41" as="geometry" />
        </mxCell>
        <mxCell id="GmpaHRqOEA-6ExnxAMrS-7" value="其他可操作实物" style="rounded=0;whiteSpace=wrap;html=1;" vertex="1" parent="1">
          <mxGeometry x="476" y="496" width="99" height="41" as="geometry" />
        </mxCell>
      </root>
    </mxGraphModel>
  </diagram>
</mxfile>
